<?xml version="1.0" encoding="utf-8"?>
<!-- Generator: Adobe Illustrator 26.2.1, SVG Export Plug-In . SVG Version: 6.00 Build 0)  -->
<svg version="1.1" id="Layer_1" xmlns="http://www.w3.org/2000/svg" xmlns:xlink="http://www.w3.org/1999/xlink" x="0px" y="0px"
	 viewBox="0 0 97.4203 237.1826" enable-background="new 0 0 97.4203 237.1826" xml:space="preserve">
<g>
	<path d="M48.2944,129.2617c0.5227-0.9646,1.066-1.9136,1.6174-2.855c-1.3088-0.9689-2.4065-2.2297-3.1431-3.7426
		c-0.1365-0.1616-0.3167-0.3434-0.5269-0.5389c-4.3281,2.001-8.1307,3.5545-10.6506,4.5378l0.0725,4.6305l0.2119,0.1074
		l3.5176,0.0571c1.5498,0.0249,2.9961,0.6519,4.0742,1.7656c1.0771,1.1128,1.6572,2.5791,1.6318,4.1279
		c-0.0518,3.1465-2.6523,5.7056-5.7988,5.7056l-4.9473-0.0796c-0.874-0.0146-1.7471-0.2305-2.5254-0.624l-5.7832-2.9272
		c-0.485-0.2454-0.9094-0.5715-1.3003-0.9318v86.3248c0,6.8301,5.5371,12.3633,12.3633,12.3633
		c6.8281,0,12.3652-5.5332,12.3652-12.3633v-84.0179c-0.901-1.0695-1.5857-2.3186-1.9958-3.6998
		C46.6928,134.4639,46.9838,131.6797,48.2944,129.2617z"/>
	<path d="M66.4057,139.0762c-1.8027,3.3271-5.2754,5.3945-9.0625,5.3945c-1.1003,0-2.1915-0.1981-3.2356-0.5454v80.894
		c0,6.8301,5.5371,12.3633,12.3633,12.3633c6.8281,0,12.3652-5.5332,12.3652-12.3633v-97.9988c0-0.0004,0-0.0008,0-0.0012v-5.3797
		C74.444,126.5253,69.9543,132.5292,66.4057,139.0762z"/>
	<path d="M51.7893,45c12.4277,0,22.5-10.0733,22.5-22.5c0-12.4268-10.0723-22.5-22.5-22.5c-12.4257,0-22.5,10.0732-22.5,22.5
		C29.2893,34.9267,39.3636,45,51.7893,45z M64.551,29.4454c-2.6448,4.2839-7.3684,7.1542-12.7617,7.1542
		s-10.1169-2.8703-12.7617-7.1542H64.551z"/>
	<path d="M60.1696,101.4337c-1.3242-0.8032-2.2568-2.0747-2.625-3.5791c-0.2141-0.8757-0.2166-1.7684-0.0278-2.6238l3.6908-1.5161
		h0.0001l5.0699,2.0825l-0.4979-1.7202l4.3457,1.4033l-0.9506-1.4939l3.5023,2.5906L73.3848,92.9l2.3336,2.1495l0.2891-3.9633
		l2.8486,0.9082l-1.2614-3.5762l2.2295,0.4414l-1.9805-5.3303l1.4259,0.1357c-0.8601-0.9053-3.3046-6.6091-4.1421-9.4612
		c-0.2419-0.824-0.63-1.8086-1.1182-2.7927c1.0116-2.7292,1.559-6.0513,1.7974-7.8513c0.0659-0.4966-0.4995-0.8237-0.9023-0.5259
		l-5.6205,3.489c-2.684-0.582-8.076-0.1956-8.0764-0.1956s-5.3925-0.3865-8.0763,0.1956l-5.6206-3.489
		c-0.4027-0.2979-0.9681,0.0293-0.9023,0.5259c0.2385,1.8,0.7859,5.1221,1.7974,7.8513c-0.488,0.9841-0.8762,1.9688-1.1182,2.7927
		c-0.8374,2.8521-3.2771,8.1945-4.1372,9.0997l-0.0001,0.0004c-2.8254,1.5778-6.2878,3.7026-9.7391,6.295l0.692-1.1355
		c0,0-1.0197,0.4802-2.5023,1.3245c2.6953,1.3151,5.8582,2.9034,9.0986,4.6281c11.9912,6.3809,18.189,10.8824,21.5815,14.6904
		c1.2344-1.4609,2.458-2.8449,3.6628-4.1696L60.1696,101.4337z M66.9116,75.3358c1.175,0,2.1274,0.9525,2.1274,2.1276
		c0,1.1751-0.9524,2.1276-2.1274,2.1276c-1.1752,0-2.1277-0.9525-2.1277-2.1276C64.7839,76.2883,65.7364,75.3358,66.9116,75.3358z
		 M61.2077,79.5209c1.3848,0,2.5073,1.1226,2.5073,2.5074c0,0.4431-0.5153,0.7427-1.2134,0.9022
		c1.3914,1.48,3.6455,2.5089,3.6741,2.5214c0.2515,0.1133,0.3643,0.4092,0.251,0.6611c-0.0835,0.1855-0.2656,0.2949-0.4565,0.2949
		c-0.0684,0-0.1377-0.0137-0.2041-0.0439c-0.1384-0.0621-2.9867-1.36-4.4564-3.3007c-0.0684,0.001-0.136,0.001-0.2043,0
		c-1.4696,1.9406-4.3175,3.2386-4.4559,3.3007c-0.2524,0.1152-0.5479,0.002-0.6606-0.251c-0.1133-0.252-0.0005-0.5479,0.251-0.6611
		c0.0286-0.0125,2.2825-1.0414,3.6737-2.5215c-0.698-0.1595-1.2131-0.4592-1.2131-0.9022
		C58.7003,80.6436,59.8228,79.5209,61.2077,79.5209z M55.5039,75.3358c1.175,0,2.1276,0.9525,2.1276,2.1276
		c0,1.1751-0.9525,2.1276-2.1276,2.1276s-2.1277-0.9525-2.1277-2.1276C53.3762,76.2883,54.3288,75.3358,55.5039,75.3358z"/>
	<path d="M85.5305,114.2386c-1.6116,1.6155-3.3245,3.4096-5.0773,5.364c0.6688,0.7838,1.6459,1.23,2.6598,1.23
		c0.4951,0,0.999-0.106,1.4766-0.3286c1.752-0.8169,2.5107-2.8994,1.6934-4.6514L85.5305,114.2386z"/>
	<path d="M68.747,97.1368l0.6045,2.085l-8.1436-3.3452l-1.2025-0.8375c-0.7208,1.5905-0.1724,3.5002,1.3575,4.4283l6.173,3.7451
		c1.5671-1.6723,3.0801-3.2203,4.5017-4.621l-0.941-0.6959L68.747,97.1368z"/>
	<path d="M20.3459,123.7583c0.5487,1.0241,1.1884,2.0591,1.9287,3.1049l3.0962,8.5764c0.3027,0.8394,0.915,1.5312,1.7119,1.9346
		l5.7842,2.9272c0.4727,0.2393,0.9932,0.3677,1.5234,0.3765l4.8525,0.0791c0.0195,0.0005,0.0381,0.0005,0.0576,0.0005
		c1.9062,0,3.4678-1.5298,3.499-3.4429c0.0312-1.9326-1.5098-3.5254-3.4434-3.5566l-4.0469-0.0659l-2.0254-1.0249
		c0.0615-0.2681,0.0918-0.5479,0.0879-0.8354L33.2712,125.4l0.1426-0.3704c1.9722-0.7612,5.9636-2.3533,10.7618-4.5465
		c-4.9329-3.5421-15.4628-9.4572-27.075-14.7987c-0.0729,0.0809-0.1456,0.162-0.219,0.2441
		c-1.2977,1.4507-2.6732,3.0812-3.9493,4.7787c0,0,1.6022-1.1679,3.1216-2.1813c0.8149-0.5436,1.5989-1.0369,2.1055-1.2863
		c-0.7377,1.235-1.5493,2.6177-2.4152,4.1282c-0.0763,0.0758-0.1492,0.1476-0.2299,0.2283
		c-1.9122,1.9127-4.9916,5.1526-7.6423,8.6738c0,0,2.9924-2.179,4.6755-3.1628c-4.1655,7.699-8.8491,17.2787-12.2593,26.9036
		c-0.9219,2.603,0.4404,5.4604,3.043,6.3828c0.5527,0.1958,1.1152,0.2886,1.6699,0.2886c2.0586,0,3.9863-1.2808,4.7129-3.3315
		c2.5891-7.3079,6.0273-14.699,9.3643-21.1663C19.5031,125.3607,19.9263,124.5496,20.3459,123.7583z"/>
	<path d="M82.7416,54.3359c-4.636-3.6656-8.9043-3.7405-10.6641-3.5704c-0.3184-0.04-0.6406-0.0673-0.97-0.0673H32.4729
		c-0.5549,0-1.0953,0.0612-1.6172,0.1723c-1.9196,0.3031-4.4855,1.1763-7.1992,3.4332c-4.7153,3.922-8.2246,10.6492-10.6038,20.3464
		c-1.3547,5.5218-2.3467,11.9974-2.9773,19.4895c-0.2861,3.3994,1.6152,6.6064,4.7344,7.9863
		c15.665,6.9346,31.3848,15.8945,33.9287,19.3213c1.3232,2.9326,4.2275,4.7061,7.292,4.7061c0.9795,0,1.9766-0.1807,2.9424-0.5635
		c4.1084-1.626,6.1201-6.2744,4.4941-10.3828c-1.5811-3.9941-5.5645-9.0312-23.8477-18.7607
		c-4.874-2.5938-9.5996-4.8945-13.0342-6.5137c0.7151-5.8825,1.6523-10.3257,2.6204-13.6766l2.3213,0.2308
		c-0.8716,2.9338-1.7449,6.8606-2.4485,12.0835c0.3738,0.1785,0.7646,0.3662,1.1675,0.5605
		c4.2649-3.4222,8.6799-6.1396,12.119-8.0362c0.9128-1.841,2.3597-5.2618,3.0033-7.4539c0.2129-0.7246,0.5176-1.5347,0.8799-2.3423
		c-0.9111-2.7617-1.4023-5.8145-1.6221-7.4766c-0.0967-0.7334,0.126-1.4707,0.6104-2.0229
		c0.4893-0.5586,1.1953-0.8789,1.9365-0.8789c0.5166,0,1.0117,0.1528,1.4395,0.4434l4.9268,3.0586
		c1.0322-0.1465,2.3428-0.2202,3.9092-0.2202c1.7393,0,3.2773,0.0898,3.7598,0.1211c0.4688-0.0308,2.0127-0.1211,3.7588-0.1211
		c1.5664,0,2.877,0.0737,3.9092,0.2202l4.9277-3.0591c0.4277-0.29,0.9229-0.4429,1.4385-0.4429
		c0.7432,0,1.4492,0.3208,1.9385,0.8804c0.4844,0.5537,0.7061,1.2915,0.6084,2.0244c-0.2197,1.6611-0.7109,4.7148-1.6211,7.4736
		c0.3604,0.8047,0.665,1.6143,0.8789,2.3413c0.8496,2.895,3.1016,7.9365,3.7002,8.6792l3.6836,3.8755l-3.5977-0.3618l2.1123,5.6836
		l-2.1425-0.424c0.025,0.205,0.05,0.4103,0.0746,0.6186l1.2036,3.4119l-2.2062-0.7038c-0.6901,0.6068-1.4496,1.291-2.2523,2.0268
		l-0.2104,2.8821l-1.4504-1.3359c-0.6016,0.5677-1.2225,1.1646-1.8634,1.7897l-0.0563,0.2923l-0.1379-0.1021
		c-3.1079,3.0419-6.6154,6.7324-10.1628,10.959c0.8354,1.183,1.4224,2.3124,1.8645,3.4296c1.0127,2.5586,0.9678,5.3574-0.125,7.8828
		c-1.0928,2.5244-3.1035,4.4727-5.6611,5.4854c-1.2139,0.4805-2.4883,0.7246-3.7891,0.7246c-1.4517,0-2.8553-0.3115-4.1377-0.8752
		c-0.5363,0.9169-1.0667,1.8398-1.5759,2.7795c-2.1055,3.8838-0.6631,8.7393,3.2217,10.8447
		c1.2109,0.6572,2.5166,0.9688,3.8047,0.9688c2.8408,0,5.5918-1.5166,7.04-4.1904c10.7363-19.8086,29.7354-34.6426,29.9199-34.7852
		c2.1436-1.6514,3.3066-4.2754,3.0918-6.9727c-0.751-9.4166-2.0771-17.3176-3.9956-23.7792
		C90.8847,63.9734,87.3505,57.981,82.7416,54.3359z"/>
</g>
</svg>
